<svg width="100" height="100" viewBox="0 0 100 100" fill="none" xmlns="http://www.w3.org/2000/svg">
<path d="M45.53 52.74C45.4368 52.738 45.3458 52.7109 45.2667 52.6616C45.1875 52.6124 45.123 52.5427 45.08 52.46C45.0207 52.3419 45.0105 52.2052 45.0518 52.0796C45.093 51.9541 45.1822 51.8499 45.3 51.79L48.88 50L10.5 30.81V69.19L14 67.44C14.0591 67.411 14.1233 67.3939 14.189 67.3898C14.2547 67.3856 14.3205 67.3945 14.3828 67.4159C14.445 67.4373 14.5024 67.4707 14.5517 67.5143C14.601 67.5579 14.6412 67.6108 14.67 67.67C14.7267 67.7885 14.7354 67.9243 14.6945 68.0491C14.6535 68.174 14.5659 68.2782 14.45 68.34L11.12 70L49.5 89.19V50.81L45.75 52.68C45.6829 52.7181 45.6072 52.7388 45.53 52.74ZM23.39 63.86L18.92 66.1C18.8523 66.1355 18.7764 66.1527 18.7 66.15C18.6073 66.1511 18.5162 66.1265 18.4367 66.0788C18.3573 66.0311 18.2926 65.9623 18.25 65.88C18.1907 65.7619 18.1805 65.6252 18.2218 65.4996C18.263 65.3741 18.3522 65.2699 18.47 65.21L22.94 63C23.0581 62.9407 23.1948 62.9305 23.3204 62.9718C23.4459 63.013 23.5501 63.1022 23.61 63.22C23.6627 63.3345 23.6692 63.4649 23.6282 63.5841C23.5873 63.7033 23.5019 63.8021 23.39 63.86V63.86ZM32.33 59.39L27.86 61.63C27.7873 61.6438 27.7127 61.6438 27.64 61.63C27.5074 61.6592 27.3686 61.6345 27.2542 61.5613C27.1398 61.4882 27.0592 61.3726 27.03 61.24C27.0008 61.1074 27.0255 60.9686 27.0987 60.8542C27.1718 60.7398 27.2874 60.6592 27.42 60.63L31.89 58.4C31.9482 58.3693 32.012 58.3506 32.0776 58.345C32.1432 58.3395 32.2092 58.3472 32.2717 58.3677C32.3342 58.3883 32.392 58.4212 32.4415 58.4645C32.4911 58.5079 32.5314 58.5607 32.56 58.62C32.6069 58.6825 32.6384 58.7552 32.6521 58.8321C32.6658 58.909 32.6613 58.9881 32.639 59.0629C32.6166 59.1378 32.577 59.2064 32.5233 59.2632C32.4697 59.32 32.4035 59.3634 32.33 59.39ZM41.33 54.92L36.86 57.16C36.7875 57.1919 36.7092 57.2089 36.63 57.21C36.5375 57.2107 36.4467 57.1846 36.3687 57.135C36.2906 57.0853 36.2285 57.0141 36.19 56.93C36.1593 56.8718 36.1406 56.808 36.135 56.7424C36.1295 56.6768 36.1372 56.6108 36.1577 56.5483C36.1783 56.4858 36.2112 56.428 36.2545 56.3785C36.2979 56.3289 36.3507 56.2886 36.41 56.26L40.83 54C40.8891 53.971 40.9533 53.9539 41.019 53.9498C41.0847 53.9456 41.1505 53.9545 41.2128 53.9759C41.275 53.9972 41.3324 54.0307 41.3817 54.0743C41.431 54.1179 41.4712 54.1708 41.5 54.23C41.534 54.289 41.5554 54.3546 41.5627 54.4223C41.57 54.4901 41.563 54.5586 41.5423 54.6236C41.5216 54.6885 41.4876 54.7484 41.4424 54.7995C41.3973 54.8505 41.3419 54.8915 41.28 54.92H41.33Z" fill="#FF5A5F"/>
<path d="M54.7 51.79C54.8178 51.8499 54.907 51.9541 54.9482 52.0796C54.9895 52.2052 54.9793 52.3419 54.92 52.46C54.877 52.5427 54.8125 52.6124 54.7333 52.6616C54.6542 52.7109 54.5632 52.738 54.47 52.74C54.3928 52.7388 54.3171 52.7181 54.25 52.68L50.5 50.81V89.19L88.88 70L85.55 68.34C85.4341 68.2782 85.3465 68.174 85.3055 68.0491C85.2646 67.9243 85.2733 67.7885 85.33 67.67C85.3588 67.6108 85.399 67.5579 85.4483 67.5143C85.4976 67.4707 85.555 67.4373 85.6172 67.4159C85.6795 67.3945 85.7453 67.3856 85.811 67.3898C85.8767 67.3939 85.9409 67.411 86 67.44L89.5 69.19V30.81L51.12 50L54.7 51.79ZM76.39 63.19C76.4499 63.0722 76.5541 62.983 76.6796 62.9418C76.8052 62.9005 76.9419 62.9107 77.06 62.97L81.53 65.21C81.5893 65.2386 81.6421 65.2789 81.6855 65.3285C81.7288 65.378 81.7617 65.4358 81.7823 65.4983C81.8028 65.5608 81.8105 65.6268 81.805 65.6924C81.7994 65.758 81.7807 65.8218 81.75 65.88C81.7074 65.9623 81.6427 66.0311 81.5633 66.0788C81.4838 66.1265 81.3927 66.1511 81.3 66.15C81.2236 66.1527 81.1477 66.1355 81.08 66.1L76.61 63.86C76.5507 63.8314 76.4979 63.7911 76.4545 63.7415C76.4112 63.692 76.3783 63.6342 76.3577 63.5717C76.3372 63.5092 76.3295 63.4432 76.335 63.3776C76.3406 63.312 76.3593 63.2482 76.39 63.19V63.19ZM67.39 58.72C67.4499 58.6022 67.5541 58.513 67.6796 58.4718C67.8052 58.4305 67.9419 58.4407 68.06 58.5L72.53 60.73C72.6626 60.7592 72.7782 60.8398 72.8513 60.9542C72.9245 61.0686 72.9492 61.2074 72.92 61.34C72.8908 61.4726 72.8102 61.5882 72.6958 61.6613C72.5814 61.7345 72.4426 61.7592 72.31 61.73C72.2373 61.7438 72.1627 61.7438 72.09 61.73L67.62 59.49C67.5506 59.4582 67.4894 59.411 67.441 59.3519C67.3927 59.2928 67.3585 59.2235 67.3412 59.1491C67.3238 59.0748 67.3237 58.9975 67.3408 58.9231C67.3579 58.8487 67.3919 58.7792 67.44 58.72H67.39ZM58.5 54.25C58.5288 54.1908 58.569 54.1379 58.6183 54.0943C58.6676 54.0507 58.725 54.0173 58.7872 53.9959C58.8495 53.9745 58.9153 53.9656 58.981 53.9698C59.0467 53.9739 59.1109 53.991 59.17 54.02L63.64 56.26C63.6993 56.2886 63.7521 56.3289 63.7955 56.3785C63.8388 56.428 63.8717 56.4858 63.8923 56.5483C63.9128 56.6108 63.9205 56.6768 63.915 56.7424C63.9094 56.808 63.8907 56.8718 63.86 56.93C63.8214 57.0141 63.7594 57.0853 63.6813 57.135C63.6033 57.1846 63.5125 57.2107 63.42 57.21C63.3408 57.2089 63.2625 57.1919 63.19 57.16L58.72 54.92C58.6607 54.8913 58.6079 54.8511 58.5645 54.8015C58.5212 54.752 58.4883 54.6942 58.4677 54.6317C58.4472 54.5692 58.4395 54.5032 58.445 54.4376C58.4506 54.372 58.4693 54.3082 58.5 54.25V54.25Z" fill="#FF5A5F"/>
<path d="M50.5 10.81V15C50.5 15.1326 50.4473 15.2598 50.3535 15.3536C50.2598 15.4473 50.1326 15.5 50 15.5C49.8674 15.5 49.7402 15.4473 49.6464 15.3536C49.5527 15.2598 49.5 15.1326 49.5 15V10.81L11.12 30L50 49.44L88.88 30L50.5 10.81ZM50.5 45C50.5 45.1326 50.4473 45.2598 50.3535 45.3535C50.2598 45.4473 50.1326 45.5 50 45.5C49.8674 45.5 49.7402 45.4473 49.6464 45.3535C49.5527 45.2598 49.5 45.1326 49.5 45V40C49.5 39.8674 49.5527 39.7402 49.6464 39.6464C49.7402 39.5527 49.8674 39.5 50 39.5C50.1326 39.5 50.2598 39.5527 50.3535 39.6464C50.4473 39.7402 50.5 39.8674 50.5 40V45ZM50.5 35C50.5 35.1326 50.4473 35.2598 50.3535 35.3535C50.2598 35.4473 50.1326 35.5 50 35.5C49.8674 35.5 49.7402 35.4473 49.6464 35.3535C49.5527 35.2598 49.5 35.1326 49.5 35V30C49.5 29.8674 49.5527 29.7402 49.6464 29.6464C49.7402 29.5527 49.8674 29.5 50 29.5C50.1326 29.5 50.2598 29.5527 50.3535 29.6464C50.4473 29.7402 50.5 29.8674 50.5 30V35ZM50.5 25C50.5 25.1326 50.4473 25.2598 50.3535 25.3536C50.2598 25.4473 50.1326 25.5 50 25.5C49.8674 25.5 49.7402 25.4473 49.6464 25.3536C49.5527 25.2598 49.5 25.1326 49.5 25V20C49.5 19.8674 49.5527 19.7402 49.6464 19.6464C49.7402 19.5527 49.8674 19.5 50 19.5C50.1326 19.5 50.2598 19.5527 50.3535 19.6464C50.4473 19.7402 50.5 19.8674 50.5 20V25Z" fill="#FF5A5F"/>
</svg>
